<svg width="119" height="119" viewBox="0 0 119 119" fill="none" xmlns="http://www.w3.org/2000/svg">
<path d="M78.3374 59.9982C83.9409 69.1149 97.3947 58.8542 98.6474 50.4252C108.452 37.9654 94.7017 26.8096 84.3936 38.2004C75.3381 41.1622 68.9007 56.6075 78.3374 59.9982ZM79.9715 57.9215C71.0386 55.5998 79.2701 42.5749 85.4012 40.3383L85.6838 39.5519C94.6405 29.4513 104.741 38.408 95.7844 48.5086L95.5018 49.295C94.8142 56.1512 84.0022 66.4731 79.1851 57.639L79.9715 57.9215Z" fill="#124C5F" fill-opacity="0.5"/>
<path d="M55.777 41.2368C61.3806 50.3535 74.8343 40.0929 76.0871 31.6638C85.8914 19.2041 72.1414 8.04822 61.5506 20.2255C52.4952 23.1872 46.0577 38.6326 55.4945 42.0232L55.777 41.2368ZM57.4111 39.1602C48.4782 36.8385 56.7097 23.8136 62.8409 21.577L63.1234 20.7906C72.0801 10.69 82.1807 19.6466 73.224 29.7472L72.9415 30.5336C72.2538 37.3899 61.4418 47.7118 56.6247 38.8776L57.4111 39.1602Z" fill="#124C5F" fill-opacity="0.5"/>
<path d="M82.0993 91.5385C87.4815 98.7998 98.6748 94.8304 98.3548 85.8362C105.174 76.7433 92.2099 65.87 83.8184 74.3978C75.328 75.7868 73.7315 87.644 81.3129 91.2559L82.0993 91.5385ZM83.7333 89.4618L82.9469 89.1793C76.9383 86.1325 78.4736 76.917 84.826 76.5357L85.895 76.0319C91.8661 69.2981 101.967 78.2548 95.9956 84.9885L95.713 85.7749C96.0943 92.1274 87.5427 96.1581 83.4508 90.2482L83.7333 89.4618Z" fill="#124C5F" fill-opacity="0.5"/>
<path d="M24.5188 44.2123C29.901 51.4736 41.0943 47.5042 40.7743 38.51C47.593 29.4171 34.6294 18.5438 26.2378 27.0716C17.7475 28.4606 16.151 40.3178 23.7324 43.9297L24.5188 44.2123ZM26.1528 42.1357L25.3664 41.8531C19.3578 38.8063 20.8931 29.5908 27.2455 29.2095L28.3145 28.7057C34.2856 21.972 44.3862 30.9286 38.4151 37.6624L38.1325 38.4488C38.5138 44.8012 29.9623 48.8319 25.8703 42.9221L26.1528 42.1357Z" fill="#124C5F" fill-opacity="0.5"/>
<path d="M70.3644 84.6588C86.9875 63.1061 51.4635 33.4718 33.5502 53.673C4.36854 58.2826 14.9492 80.7305 30.4933 94.3068C46.32 107.097 71.2633 114.283 70.3644 84.6588ZM68.0053 83.8112L67.7227 84.5976C68.6828 111.58 46.0987 105.241 31.8448 93.0166C17.5909 80.7918 6.16262 60.703 33.4889 56.3148L34.5579 55.8109C51.1197 36.9 82.9943 64.3351 68.0053 83.8112Z" fill="#124C5F" fill-opacity="0.5"/>
</svg>
