<svg width="87" height="89" viewBox="0 0 87 89" fill="none" xmlns="http://www.w3.org/2000/svg">
<path d="M42.3841 45.0198C36.8217 48.5856 38.5299 54.623 36.1303 62.5931C32.753 74.2044 37.6807 79.685 43.0206 78.236C48.3606 76.7869 49.2171 69.1692 54.4685 66.4395C59.4536 63.4137 66.4245 66.4383 70.1998 62.3624C74.1082 58.4346 71.8896 51.2386 60.3228 48.4219C52.6079 46.6384 48.2018 42.0334 42.3841 45.0198Z" fill="#D9A6FF" fill-opacity="0.5"/>
<path d="M24.9174 48.6581C30.6714 51.6812 34.2305 57.0466 32.889 60.6194C31.4101 64.3208 25.5679 64.8577 19.8139 61.8347C14.0599 58.8116 10.5008 53.4462 11.8423 49.8733C13.3213 46.1719 19.1634 45.6351 24.9174 48.6581Z" fill="#D9A6FF" fill-opacity="0.5"/>
<path d="M53.278 32.3129C52.6446 38.6758 55.3862 44.0807 59.2691 44.5713C63.1521 45.0619 66.9301 40.4297 67.5635 34.0668C68.1969 27.7039 65.4553 22.2989 61.5723 21.8084C57.5455 21.4523 53.7675 26.0845 53.278 32.3129Z" fill="#D9A6FF" fill-opacity="0.5"/>
<path d="M31.858 30.4069C36.3579 35.7041 37.3031 42.3092 34.1642 44.9566C31.0253 47.6039 24.8017 45.3589 20.3018 40.0617C15.8019 34.7645 14.8566 28.1594 17.9955 25.512C21.1344 22.8647 27.358 25.1097 31.858 30.4069Z" fill="#D9A6FF" fill-opacity="0.5"/>
<path d="M34.7868 28.4601C36.9667 34.5829 41.7866 38.2368 45.4554 36.912C49.2631 35.4573 50.5612 29.5045 48.5099 23.5247C46.3301 17.402 41.5102 13.7481 37.8414 15.0728C34.044 16.2546 32.607 22.3373 34.7868 28.4601Z" fill="#D9A6FF" fill-opacity="0.5"/>
</svg>
